<?xml version="1.0" standalone="no"?>
<!DOCTYPE svg PUBLIC "-//W3C//DTD SVG 20010904//EN"
 "http://www.w3.org/TR/2001/REC-SVG-20010904/DTD/svg10.dtd">
<svg version="1.0" xmlns="http://www.w3.org/2000/svg"
 width="512.000000pt" height="512.000000pt" viewBox="0 0 512.000000 512.000000"
 preserveAspectRatio="xMidYMid meet">
<metadata>
Created by potrace 1.16, written by Peter Selinger 2001-2019
</metadata>
<g transform="translate(0.000000,512.000000) scale(0.100000,-0.100000)"
fill="#000000" stroke="none">
<path d="M1359 4727 c-108 -31 -210 -123 -250 -225 -17 -43 -23 -78 -23 -143
0 -80 3 -93 37 -162 42 -86 93 -137 248 -249 54 -39 97 -73 96 -75 -2 -1 -104
38 -228 88 -242 98 -285 107 -321 71 -27 -26 -31 -93 -7 -117 8 -8 166 -76
349 -150 l335 -134 -560 -1 c-524 0 -563 -2 -601 -19 -23 -10 -52 -34 -65 -52
l-24 -34 -3 -778 -2 -778 24 -24 c28 -27 79 -33 107 -12 39 30 39 35 39 791
l0 736 1540 0 1540 0 0 -749 0 -750 26 -20 c40 -31 87 -28 118 10 21 25 26 41
26 85 l0 54 489 0 c347 0 498 -3 522 -12 57 -19 107 -58 139 -107 l31 -46
-141 -5 -142 -5 -25 -29 c-25 -29 -25 -32 -21 -160 4 -118 7 -136 31 -183 46
-90 123 -133 237 -133 l70 0 0 -175 0 -175 -97 0 -98 0 -25 57 c-50 116 -192
234 -324 269 -66 18 -206 18 -272 0 -132 -35 -274 -153 -324 -269 -45 -104
-49 -86 -52 263 -3 316 -3 320 -26 342 -31 32 -97 31 -123 -1 -18 -22 -19 -44
-19 -342 l0 -319 -827 0 -828 0 -29 63 c-35 75 -138 183 -211 220 -94 47 -158
60 -274 55 -77 -4 -121 -11 -160 -27 -114 -46 -208 -131 -266 -242 l-36 -69
-225 0 -224 0 0 90 0 90 190 0 c177 0 191 1 210 20 27 27 27 93 0 120 -19 19
-33 20 -445 20 -412 0 -426 -1 -445 -20 -27 -27 -27 -93 0 -120 18 -18 33 -20
170 -20 l150 0 0 -111 c0 -131 13 -167 73 -207 l40 -27 244 -3 243 -3 0 -44
c0 -105 73 -251 166 -334 58 -52 168 -107 243 -121 288 -54 563 139 604 424
l11 76 898 0 898 0 0 -33 c0 -101 62 -238 145 -322 203 -205 530 -205 730 -1
86 88 145 217 145 318 l0 37 151 3 c145 3 152 4 170 27 18 22 19 46 19 511 0
456 -1 490 -19 543 -46 133 -157 237 -291 272 l-44 11 -64 257 -64 256 28 25
c28 24 29 26 29 128 0 97 -2 108 -33 170 -38 77 -92 130 -171 167 l-56 26
-337 3 -338 3 0 87 c0 48 -5 104 -10 124 -12 41 -50 91 -84 111 -16 9 -167 13
-590 17 l-569 5 324 129 c217 86 331 136 346 153 44 47 21 118 -44 138 -16 4
-92 -21 -265 -90 -134 -54 -250 -99 -258 -102 -8 -3 31 27 88 66 218 153 299
258 310 401 20 288 -250 483 -523 380 -93 -36 -160 -110 -228 -251 -48 -98
-156 -375 -197 -504 l-13 -40 -15 45 c-41 127 -150 407 -194 498 -92 189 -196
270 -357 278 -44 2 -95 -1 -122 -9z m162 -168 c89 -27 140 -105 242 -364 59
-150 131 -364 126 -370 -2 -2 -62 32 -132 76 -319 196 -475 325 -497 408 -41
155 106 296 261 250z m1172 0 c87 -24 155 -124 145 -213 -8 -68 -38 -115 -114
-179 -99 -84 -510 -354 -521 -343 -5 4 91 280 138 399 52 130 111 246 143 280
32 34 100 67 141 67 17 0 47 -5 68 -11z m1702 -1450 c66 -17 112 -67 131 -144
l6 -25 -386 0 -386 0 0 90 0 90 296 0 c181 0 312 -4 339 -11z m74 -376 c6 -21
34 -136 64 -255 l55 -218 -414 0 -414 0 0 255 0 255 350 0 349 0 10 -37z m481
-1068 l0 -85 -58 0 c-79 0 -104 25 -110 110 l-4 60 86 0 86 0 0 -85z m-3355
-465 c66 -32 131 -99 163 -168 23 -48 27 -71 27 -142 0 -74 -4 -92 -28 -140
-39 -75 -98 -133 -171 -167 -51 -23 -74 -28 -141 -28 -67 0 -89 5 -137 28 -69
34 -131 94 -166 162 -37 73 -42 188 -11 270 29 79 112 163 189 193 78 31 204
27 275 -8z m2816 2 c70 -34 122 -84 159 -153 45 -85 53 -186 20 -271 -28 -76
-104 -159 -178 -195 -49 -23 -70 -27 -142 -27 -72 0 -94 4 -141 27 -67 32
-142 109 -171 175 -25 56 -34 162 -19 217 27 101 121 204 216 240 61 22 198
16 256 -13z"/>
<path d="M1359 1037 c-52 -35 -79 -82 -79 -139 0 -162 186 -237 293 -119 56
62 61 142 14 212 -46 69 -160 92 -228 46z"/>
<path d="M4184 1041 c-77 -47 -104 -143 -64 -225 29 -61 78 -91 150 -91 72 0
121 30 150 91 58 118 -19 244 -149 244 -37 0 -66 -6 -87 -19z"/>
<path d="M871 2914 c-20 -26 -21 -37 -21 -399 0 -422 -2 -411 77 -422 35 -5
45 -2 67 20 26 26 26 29 26 172 l0 145 99 0 c83 0 102 3 124 20 33 26 43 70
23 108 -20 39 -30 42 -147 42 l-99 0 0 84 0 85 144 3 c137 3 146 4 170 27 34
32 36 88 3 119 -22 21 -31 22 -234 22 l-212 0 -20 -26z"/>
<path d="M1471 2914 c-21 -26 -21 -34 -21 -401 l0 -374 25 -24 c39 -40 111
-28 134 22 6 13 11 66 11 118 l0 95 60 0 60 0 80 -120 c44 -65 89 -124 99
-130 32 -17 68 -12 97 14 46 39 39 78 -33 187 l-62 93 40 44 c58 63 82 122 83
207 0 115 -51 202 -154 263 -43 26 -51 27 -221 30 l-176 4 -22 -28z m340 -160
c43 -22 72 -89 58 -135 -22 -76 -60 -99 -166 -99 l-83 0 0 125 0 125 80 0 c54
0 91 -5 111 -16z"/>
<path d="M2159 2921 l-24 -19 -3 -377 -3 -376 30 -29 29 -30 201 0 c194 0 201
1 226 23 38 32 38 92 0 124 -25 22 -35 23 -171 23 l-144 0 0 85 0 85 101 0
c98 0 101 1 130 29 37 38 39 82 4 116 -23 23 -31 25 -130 25 l-105 0 0 85 0
85 129 0 c135 0 185 10 201 40 17 32 12 88 -10 110 -19 19 -33 20 -229 20
-191 0 -211 -2 -232 -19z"/>
<path d="M2755 2915 l-25 -24 0 -365 c0 -246 4 -373 11 -389 19 -42 47 -47
255 -47 194 0 195 0 219 25 36 35 35 96 -1 124 -24 19 -40 21 -170 21 l-144 0
0 85 0 85 50 0 c55 0 104 20 114 45 13 36 6 82 -17 103 -19 18 -35 22 -85 22
l-62 0 0 85 0 85 129 0 c178 0 211 14 211 93 0 22 -8 41 -23 55 -22 21 -32 22
-231 22 -206 0 -207 0 -231 -25z"/>
<path d="M213 1740 c-47 -19 -59 -101 -20 -138 l23 -22 550 0 551 0 21 23 c22
23 29 68 16 102 -17 44 -34 45 -591 44 -290 0 -538 -4 -550 -9z"/>
<path d="M2072 1377 c-30 -32 -29 -87 1 -115 l23 -22 637 0 c624 0 637 0 657
20 13 13 20 33 20 60 0 27 -7 47 -20 60 -20 20 -33 20 -658 20 l-639 0 -21
-23z"/>
</g>
</svg>
