<?xml version="1.0" standalone="no"?>
<!DOCTYPE svg PUBLIC "-//W3C//DTD SVG 20010904//EN"
 "http://www.w3.org/TR/2001/REC-SVG-20010904/DTD/svg10.dtd">
<svg version="1.0" xmlns="http://www.w3.org/2000/svg"
 width="512.000000pt" height="512.000000pt" viewBox="0 0 512.000000 512.000000"
 preserveAspectRatio="xMidYMid meet">
<metadata>
Created by potrace 1.16, written by Peter Selinger 2001-2019
</metadata>
<g transform="translate(0.000000,512.000000) scale(0.100000,-0.100000)"
fill="#000000" stroke="none">
<path d="M2199 5087 c-51 -27 -104 -91 -119 -145 -6 -22 -10 -178 -10 -389 0
-194 -1 -353 -2 -353 -2 0 -39 7 -83 15 -44 8 -141 18 -215 21 -676 33 -1316
-354 -1598 -966 -49 -106 -105 -277 -129 -395 -26 -129 -26 -501 0 -630 149
-734 731 -1270 1472 -1355 176 -20 376 -8 549 32 l88 20 452 -450 c470 -469
495 -491 576 -492 97 0 53 -40 1003 908 535 535 896 903 909 926 16 31 19 53
16 107 -4 76 -18 102 -82 153 l-38 31 -344 3 -344 3 0 1400 c0 1545 5 1437
-63 1508 -18 18 -50 42 -72 52 -38 18 -86 19 -981 19 l-941 0 -44 -23z m1880
-148 c17 -6 36 -19 41 -29 6 -12 10 -519 10 -1402 0 -920 4 -1395 10 -1420 12
-41 50 -91 84 -111 15 -8 120 -13 366 -17 328 -5 345 -6 348 -24 3 -14 -225
-248 -869 -892 -481 -481 -878 -874 -884 -874 -5 0 -198 188 -427 417 l-417
417 117 61 c460 238 772 647 884 1159 20 88 22 131 22 336 0 206 -2 248 -22
337 -96 438 -337 800 -700 1051 -86 59 -242 142 -335 176 l-62 24 -3 369 c-2
359 -2 371 18 396 11 14 30 28 43 30 12 2 409 5 883 6 606 1 870 -2 893 -10z
m-2079 -902 c309 -65 574 -215 794 -448 191 -203 323 -458 383 -739 26 -121
26 -459 0 -580 -130 -610 -594 -1071 -1199 -1192 -147 -29 -406 -32 -543 -5
-625 123 -1090 578 -1222 1197 -26 121 -26 459 0 580 106 497 443 909 899
1100 214 89 390 122 623 115 106 -3 184 -11 265 -28z"/>
<path d="M1570 3814 c-443 -57 -802 -302 -995 -680 -148 -289 -177 -644 -79
-956 136 -434 509 -765 961 -855 120 -23 356 -23 476 0 515 103 912 508 1002
1024 32 180 15 416 -41 595 -136 432 -511 767 -956 853 -83 16 -302 27 -368
19z m382 -198 c390 -99 686 -390 795 -782 25 -91 28 -114 28 -274 0 -160 -3
-183 -28 -274 -177 -638 -846 -976 -1453 -736 -321 128 -562 402 -654 745 -28
102 -38 309 -21 425 69 469 457 853 931 920 107 15 292 4 402 -24z"/>
<path d="M1631 3344 c-15 -19 -21 -41 -21 -75 l0 -48 -54 -11 c-115 -24 -220
-119 -252 -229 -12 -39 -15 -82 -12 -160 3 -98 6 -111 38 -169 36 -69 79 -110
150 -145 37 -18 69 -23 185 -28 147 -6 179 -15 222 -61 12 -12 26 -36 32 -51
14 -36 14 -147 0 -184 -15 -42 -68 -92 -109 -103 -45 -13 -185 -13 -230 0 -61
17 -120 93 -120 155 0 62 -50 103 -109 90 -41 -9 -61 -40 -61 -95 0 -150 116
-289 266 -320 l54 -11 0 -48 c0 -69 27 -101 85 -101 58 0 85 32 85 101 l0 48
54 11 c115 24 220 119 252 229 12 39 15 82 12 160 -3 98 -6 111 -38 169 -36
69 -79 110 -150 145 -37 18 -69 23 -185 28 -147 6 -179 15 -222 61 -12 12 -26
36 -32 51 -14 36 -14 147 0 184 15 42 68 92 109 103 45 13 185 13 229 0 68
-19 110 -77 126 -172 17 -107 165 -85 165 25 0 147 -117 286 -266 317 l-54 11
0 48 c0 69 -27 101 -85 101 -35 0 -48 -5 -64 -26z"/>
</g>
</svg>
